<svg xmlns="http://www.w3.org/2000/svg" xmlns:xlink="http://www.w3.org/1999/xlink" version="1.1" x="0px" y="0px" viewBox="0 0 100 125" enable-background="new 0 0 100 100" xml:space="preserve"><path fill="#bababa" d="M56.532,61.533c-0.046-0.031-0.348-0.878-0.348-0.878l-1.39-2.777l-8.94-14.86V41.81l13.168,17.216  l0.188,0.737l0.143,0.05c0,0,0.089,0.009,0,0C61.217,60.285,62.25,62,62.25,62l0.322,0.711l1.148-4.652  c0,0,12.804-12.686,13.922-21.384l-3.169,0.846c0,0-3.443-3.503-3.807-5.799c-0.362-2.296-1.147-10.632-4.652-12.685  c0,0-1.69-0.423-2.958,0.303c0,0-4.712-5.498-11.658-5.377l-0.725-2.96c0,0-21.626,1.692-21.444,23.317c0,0-0.478,8.635,4.536,13.83  L33.583,47.7c0,0,1.625,3.169-0.791,6.432c0,0-2.174-0.06-2.537,2.235l-2.899,5.195c0,0-0.967-0.122-1.752,1.268  c-0.785,1.391-6.584,12.868-6.584,12.868s15.887-7.793,22.532-6.584c0,0,12.261-0.594,23.982,17.554c0,0,0.903-13.689-2.236-15.32   M56.352,49.542l5.557-7.49h0.423l2.357,0.302L57.8,50.87L56.352,49.542z M60.58,52.865l-1.631-1.21l7.248-9.121h2.236L60.58,52.865  z M73.083,42.051c0,0-8.576,12.988-9.725,12.928c-1.148-0.062-1.631-1.209-1.631-1.209s9.241-10.573,8.698-11.236L73.083,42.051z   M68.287,34.378l1.15,3.153l-9.447-2.042l-1.041-3.637L68.287,34.378z M58.465,41.387l2.115,0.604l-5.437,6.846l-1.391-1.59  L58.465,41.387z"/><text x="0" y="115" fill="#000000" font-size="5px" font-weight="bold" font-family="'Helvetica Neue', Helvetica, Arial-Unicode, Arial, Sans-serif">Created by Tyler Glaude</text><text x="0" y="120" fill="#000000" font-size="5px" font-weight="bold" font-family="'Helvetica Neue', Helvetica, Arial-Unicode, Arial, Sans-serif">from the Noun Project</text></svg>