<svg xmlns="http://www.w3.org/2000/svg" xmlns:xlink="http://www.w3.org/1999/xlink" xml:space="preserve" version="1.1" style="shape-rendering:geometricPrecision;text-rendering:geometricPrecision;image-rendering:optimizeQuality;" viewBox="0 0 612 737.5" x="0px" y="0px" fill-rule="evenodd" clip-rule="evenodd"><defs><style type="text/css">
  </style></defs><g><path fill="#bababa" d="M537 298c16,31 -14,39 -8,24 1,-3 5,-8 5,-8 0,0 -5,5 -7,7 -5,4 -12,-5 -14,-9 -2,-4 -2,-9 -3,-15 0,-6 -2,-11 1,-14 8,-12 23,9 26,15z"/><path fill="#bababa" d="M503 303c-8,-7 -23,-21 -28,-29 -5,-9 -1,-13 6,-14 13,-4 29,-29 30,-29 3,-1 4,3 4,10 1,24 -13,43 -6,64 1,4 2,5 -6,-2z"/><path fill="#bababa" d="M567 296c5,12 2,39 -3,52 -2,4 -3,5 -7,3 -3,-1 -30,-18 -23,-21 18,-7 8,-30 -1,-41 -13,-15 -20,-10 -21,-11 -1,-1 1,-16 6,-19 9,-4 46,27 49,37z"/><path fill="#bababa" d="M533 335c-17,-17 -52,-48 -69,-68 -3,-3 -6,-2 -8,0 -1,2 -2,6 -5,12 -5,13 -14,24 -19,36 -2,3 -1,3 4,4 22,4 84,29 93,28 4,0 9,-2 10,-4 1,-1 0,-3 -6,-8z"/><path fill="#bababa" d="M459 217c-8,3 -14,7 -20,13 -6,6 -12,14 -18,23 -6,9 -12,20 -15,24 -6,9 20,40 20,40 1,0 1,0 4,-4 8,-15 14,-33 23,-48 7,-12 7,-4 15,-3 11,1 29,-15 35,-23 19,-28 -24,-30 -44,-22z"/><path fill="#bababa" d="M429 320c1,0 4,0 11,2 6,1 17,4 33,9 15,5 36,12 46,16 11,4 11,4 10,4 -17,8 -37,25 -52,29 -6,2 -11,0 -15,-4 -8,-8 -28,-42 -33,-52 -1,-2 -1,-3 0,-4z"/><path fill="#bababa" d="M579 336c6,0 20,11 18,18 -1,7 -19,23 -25,27 -16,10 -28,10 -45,9 -6,-1 -45,-2 -46,-4 -2,-2 3,-6 11,-11 9,-5 21,-11 29,-16 8,-5 12,-8 15,-10 3,-2 4,-3 7,-2 23,13 21,2 25,-5 2,-3 8,-6 11,-6z"/>
  <path fill="#bababa" d="M464 381c-10,-8 -22,-30 -33,-48 -29,-49 -34,-43 -31,-89 2,-22 -32,-28 -30,-5 1,4 11,32 13,40 11,41 25,82 62,104 23,15 37,35 69,23 9,-3 20,-8 21,-11 1,-3 -8,-2 -17,-2 -18,0 -39,0 -54,-12z"/>
  <path fill="#bababa" d="M535 399c6,-4 36,-15 42,-15 7,0 24,11 32,14 15,8 -25,38 -31,43 -34,28 -52,28 -91,7 -4,-2 -46,-24 -43,-29 5,-6 8,-12 12,-19 2,-3 2,-3 6,0 28,20 45,14 73,-1z"/>
  <path fill="#bababa" d="M453 397c1,-2 1,-3 -6,-8 -6,-4 -19,-14 -29,-25 -16,-20 -27,-51 -34,-68 -2,-5 -6,1 -8,9 -2,7 -5,15 -7,23 -6,18 -8,43 2,61 7,11 51,34 63,32 8,-2 16,-17 19,-24z"/>
  <path fill="#bababa" d="M581 332c7,-9 22,-52 2,-73 -14,-14 -9,-15 -14,-31 -5,-21 -28,-27 -46,-31 -23,-6 -55,-7 -78,2 -3,1 -45,28 -45,29 0,0 3,31 3,39 0,7 0,7 3,4 18,-22 27,-46 56,-57 20,-7 46,-4 54,19 5,13 -2,20 10,26 65,31 39,57 46,75 0,1 1,7 9,-2z"/>
  <path fill="#bababa" d="M445 188c-2,-9 -15,-25 -22,-37 -7,-12 -9,-21 -13,-22 -4,-1 -11,6 -22,17 -27,28 -52,58 -60,98 -7,35 13,59 31,83 7,11 16,-26 19,-35 3,-9 4,-14 0,-23 -3,-10 -9,-23 -11,-33 -1,-9 2,-14 9,-15 37,-3 17,7 55,-16 9,-6 17,-8 14,-17z"/>
  <path fill="#bababa" d="M507 469c-10,18 -41,36 -62,30 -33,-8 -65,-53 -76,-84 -3,-9 -2,-16 -1,-19 2,-3 4,-2 13,4 34,23 52,24 58,27 10,5 73,33 68,42z"/>
  <path fill="#bababa" d="M336 205c0,0 -29,-9 -32,-10 -10,-4 -35,-22 -40,-17 -13,9 -21,58 -23,75 -7,53 22,140 90,149 10,1 34,10 35,-4 0,-2 -7,-63 -7,-63 -14,-36 -46,-42 -32,-101 2,-11 5,-19 7,-23 2,-5 2,-5 2,-6z"/>
  <path fill="#bababa" d="M360 409c-41,-14 -52,6 -89,-36 -6,-6 -6,-7 -10,-2 -4,4 -12,14 -18,21 -6,8 -11,19 -10,24 7,47 61,117 90,142 49,44 35,-6 50,-33 10,-19 17,-19 18,-42 3,-32 -14,-39 -24,-67 -2,-4 -3,-6 -7,-7z"/><path fill="#bababa" d="M398 471c16,15 26,29 51,31 26,2 41,-10 58,-27 5,-6 9,-9 13,-2 8,14 22,107 3,114 -37,13 -86,-13 -106,-48 -11,-17 -28,-45 -23,-65 0,-4 1,-6 4,-3z"/><path fill="#bababa" d="M445 147c-3,-19 -3,-19 16,-25 7,-3 10,-6 13,-11 23,-33 6,-18 38,-36 3,-1 9,-16 11,-20 7,-22 4,-15 15,-34 3,-5 7,-13 10,-17 2,-5 5,-6 10,1 43,60 7,188 -36,190 -1,0 -12,-3 -13,-4 0,0 19,-12 21,-13 2,-1 -3,1 -5,2 -3,1 -3,1 -3,1 -1,0 0,0 2,-4 2,-4 6,-12 9,-16 3,-5 4,-5 8,-8 4,-3 11,-9 16,-12 4,-3 5,-4 2,-2 -4,3 -21,14 -20,13 1,-4 12,-20 15,-26 2,-3 3,-4 6,-7 3,-3 8,-8 11,-11 3,-3 4,-4 2,-3 -1,1 -15,15 -13,11 0,0 3,-5 4,-9 0,-4 1,-11 2,-14 1,-4 2,-5 3,-7 2,-2 5,-5 7,-7 1,-2 1,-2 0,-1 -1,1 -4,3 -6,5 -2,1 -3,2 -3,-1 0,-3 1,-9 2,-15 2,-5 4,-10 4,-11 -1,-1 -6,10 -6,9 -1,-1 -3,-9 -3,-10 -1,-2 0,-2 0,-4 1,-2 3,-5 4,-7 1,-2 1,-3 0,-2 -1,1 -5,10 -6,8 -3,-6 -5,-16 -6,-19 0,-4 0,-12 -1,-11 0,1 0,1 0,3 -1,18 9,32 3,24 -3,-3 -6,-8 -9,-11 -2,-3 -3,-4 -1,-1 2,3 8,11 10,15 11,15 8,33 6,50 -1,6 -2,11 -5,16 -1,0 -8,-29 -13,-37 -3,-5 -7,-12 -9,-13 -1,-2 2,2 5,8 3,6 7,14 10,22 2,8 6,19 4,24 -4,10 -13,23 -19,32 -2,3 -3,4 -4,3 0,-1 -1,-4 -2,-7 -3,-10 -10,-53 -11,-57 -2,-7 6,46 11,62 1,4 0,4 -2,9 -2,4 -6,11 -8,15 -3,6 -6,10 -13,11 -2,1 -2,0 -4,-2 -7,-12 -10,-26 -12,-40 -3,-11 -5,-22 -6,-25 -1,-3 -1,2 1,9 1,8 4,19 5,27 2,9 3,15 5,19 2,5 4,9 5,11 1,2 2,3 0,2 -11,-2 -32,4 -48,2 -8,-1 -9,-36 -9,-44z"/><path fill="#bababa" d="M444 178c4,3 2,-1 1,-9 -1,-8 -3,-22 -6,-31 -4,-12 -12,-17 -14,-25 -8,-25 -2,-14 -19,-32 -13,-16 -6,-17 -28,-29 -19,-9 -9,-14 -37,-22 -4,-1 -7,-4 -12,-7 -11,-8 -22,-15 -36,-10 -7,3 -13,22 -15,30 -7,25 5,40 -5,56 -11,17 5,25 5,37 0,36 -3,13 15,40 10,15 16,24 38,25 7,0 8,-4 2,-9 -5,-5 -19,-12 -25,-15 -6,-3 -5,-3 2,0 7,3 20,10 27,11 12,3 22,-13 19,-18 -3,-3 -12,-5 -19,-8 -12,-5 -34,-21 -34,-21 12,2 43,31 62,24 4,-1 5,-4 5,-7 1,-2 0,-4 -1,-5 0,-1 -1,-2 -7,-5 -40,-15 -69,-45 -67,-44 27,16 36,31 73,46 4,1 4,0 3,-1 0,0 -1,-1 -4,-5 -3,-5 -8,-12 -11,-17 -3,-5 -4,-7 -9,-10 -19,-13 -37,-21 -55,-37 -4,-3 -6,-5 -1,-2 18,11 35,23 53,34 5,2 6,3 6,3 0,-1 0,-2 -2,-6 -5,-13 -5,-23 -18,-29 -5,-2 -37,-19 -34,-23 0,-1 9,7 15,11 6,5 11,6 14,6 11,4 -31,-48 -23,-42 1,1 5,7 9,13 4,5 7,9 9,11 1,2 2,2 2,0 0,-6 -4,-25 -4,-25 5,5 6,22 6,29 0,5 9,16 12,19 2,3 3,3 4,0 1,-2 3,-5 4,-11 1,-5 2,-13 3,-16 2,-11 -4,27 -4,28 -1,6 0,5 0,7 4,8 6,17 10,25 1,3 2,4 2,5 0,0 0,1 2,-1 7,-6 13,-22 15,-31 2,-7 2,-13 2,-14 4,-5 -2,24 -6,32 -4,7 -8,12 -10,15 -2,3 -1,3 -1,5 3,7 8,14 13,21 2,3 3,3 3,4 1,0 1,1 5,-6 12,-19 16,-30 20,-52 1,-3 2,0 1,5 -1,6 -3,15 -8,26 -4,10 -11,21 -15,26 -3,6 -4,7 -3,7 0,1 1,1 2,1 1,0 2,-1 7,-6 4,-4 24,-27 27,-26 6,3 7,13 9,12 1,-1 3,-6 3,-6 -5,12 14,40 23,49z"/><path fill="#bababa" d="M241 230c-2,13 -5,2 -31,10 -8,2 -11,8 -15,6 -11,-3 -20,-21 -41,-21 15,4 35,19 31,23 -2,2 -7,4 -15,6 -4,2 -8,3 -14,9 -2,2 -49,-24 -48,-22 2,3 44,22 42,24 -19,14 -51,0 -73,-2 -1,0 44,11 54,11 1,1 -2,4 -7,5 -20,2 -69,5 -69,5 11,1 59,-2 67,-3 3,0 -44,15 -55,19 -19,8 -21,9 -17,7 4,-1 42,-14 42,-13 2,2 -41,27 -57,40l63 -42c-5,7 -34,34 -34,36 0,0 3,-3 14,-14 6,-5 12,-14 21,-20 12,-8 26,-12 25,-10 -14,13 -34,42 -45,58 -4,5 59,-79 67,-71 4,3 -42,68 -40,66 5,-5 25,-32 43,-63 7,-13 23,-22 26,-18 8,10 -50,100 -34,76 18,-28 34,-54 36,-71 2,-11 12,-15 16,-7 5,12 -26,103 -1,31 5,-16 1,-26 6,-33 10,-13 31,-15 38,-9 5,3 -2,11 -2,16 -4,61 -27,73 -64,84 -47,14 -47,38 -90,25 -53,-16 -80,9 -64,-53 8,-33 11,-23 29,-46 53,-63 -11,-21 75,-62 83,-39 117,37 109,4 -9,-38 -19,-53 -30,-69 -9,-12 -20,-23 -37,-37 -9,-7 -5,-20 -7,-22 -2,-1 0,17 -1,15 -14,-10 -25,-18 -36,-23 -1,0 -11,-16 -12,-16 -1,-1 8,15 7,15 -25,-10 -48,-5 -81,8l42 -11c18,-1 42,6 44,8 4,6 -30,13 -45,17 -4,2 13,-3 27,-6 5,-1 22,-8 22,-8 14,2 27,14 30,19 5,13 -29,18 -46,24l38 -9 13 -8c10,4 28,20 29,24 0,6 -39,17 -55,24 -6,3 58,-19 58,-19 3,0 8,7 12,12 43,61 -85,37 -116,-9 -30,-42 -110,-43 -78,-63 57,-35 57,-23 86,-21 8,0 14,-2 23,-1 33,5 82,55 100,81l25 94z"/><path fill="#bababa" d="M246 339c-50,-8 -98,93 -102,124 -6,41 -15,42 -10,56 17,47 -8,77 45,67 68,-13 34,-21 59,-26 29,-6 54,-33 54,-33 -40,-42 -63,-114 -58,-90 3,13 1,88 -2,109 0,1 2,-114 0,-106 -3,7 -15,24 -16,30 -4,33 -6,91 -9,88 0,0 8,-83 8,-90 1,-1 -14,26 -22,33 1,3 -4,36 -5,42 1,-10 5,-42 4,-41 -3,1 -15,37 -22,56 -3,8 -5,14 -5,12 0,-1 1,-4 2,-8 4,-9 14,-40 12,-36 -14,23 -33,34 -21,24 18,-15 30,-46 31,-48 2,-2 -12,2 -33,16 9,-7 11,-8 19,-13 9,-5 18,-7 20,-9 12,-13 31,-47 30,-47 -25,15 -56,22 -61,23 -1,0 62,-13 69,-40 1,-5 -2,-18 -8,-15 -22,9 -54,23 -58,19 -1,0 58,-9 71,-40 1,-3 1,-6 -1,-6 -2,0 -62,6 -54,4 8,-2 95,-2 76,-43 -3,-6 -7,-11 -13,-12z"/></g><text x="0" y="605" fill="#000000" font-size="5px" font-weight="bold" font-family="'Helvetica Neue', Helvetica, Arial-Unicode, Arial, Sans-serif">Created by TUTUK ISTUNINGRUM</text><text x="0" y="610" fill="#000000" font-size="5px" font-weight="bold" font-family="'Helvetica Neue', Helvetica, Arial-Unicode, Arial, Sans-serif">from the Noun Project</text></svg>