<svg xmlns="http://www.w3.org/2000/svg" xmlns:xlink="http://www.w3.org/1999/xlink" version="1.1" x="0px" y="0px" viewBox="0 0 100 125" enable-background="new 0 0 100 100" xml:space="preserve"><g><path fill="none" d="M48.195,34.687c-0.156,0.012-0.313,0.039-0.464,0.078c-0.323,0.083-0.439,0.294-0.326,0.707   c1.308,0.66,3.159,0.231,4.044,1.721c1.223,0.058,2.425-0.364,3.404,0.46c1.278,1.077,1.896,2.52,1.994,4.257   c0.626-0.908,0.247-1.87,0.37-2.807c0.671,0.144,0.71,0.644,0.852,1.074c0.206-0.224,0.058-0.686,0.558-0.706   c1.236,1.219,0.358,2.575,0.096,4.046c0.795-0.904,0.984-1.921,1.511-2.897c0.455,1.699-0.702,2.854-1.128,4.465   c1.183-1.33,1.348-2.888,2.259-4.281c0.302,1.297-0.417,2.214-0.511,3.304c0.535-0.428,0.486-1.138,1.119-1.61   c0.439,1.072-0.059,1.822-0.467,2.536c-1.867,3.265-5.899,5.128-9.61,4.488c-0.193-0.033-0.39-0.071-0.584-0.068   c-2.034,0.034-3.739-0.719-5.206-2.104c-1.406-1.328-2.273-2.9-2.245-4.867c0.01-0.695-0.141-1.33-0.449-1.923   c-0.291-0.561-0.609-1.103-0.673-1.744c-0.042-0.419-0.264-0.676-0.666-0.685c-0.663-0.015-1.291-0.35-1.956-0.234   c-1.203,1.58-1.314,3.527-1.944,5.281c-0.07,0.196-0.001,0.479,0.086,0.688c0.527,1.268,0.82,2.622,1.464,3.846   c0.634,1.206,0.864,1.358,2.112,0.908c1.128-0.407,2.211-0.372,3.346-0.06c2.769,0.76,5.46,1.717,8.063,2.934   c2.224,1.04,4.304,0.477,5.765-1.524c1.013-1.387,2.158-2.59,3.85-3.156c0.601-0.201,1.084-0.632,1.56-1.043   c1.049-0.905,1.296-2.329,0.546-3.502c-1.193-1.865-2.62-3.568-4.38-4.895c-1.619-1.221-3.341-2.337-5.457-2.629   C52.811,34.429,50.506,34.51,48.195,34.687z"/><path fill="none" d="M61.424,48.9c-0.817,0.696-1.424,1.569-2.022,2.441c-0.567,0.827-1.346,1.37-2.294,1.524   c-1.52,0.247-3.045,0.244-4.495-0.447c-2.59-1.236-5.282-2.197-8.065-2.9c-0.889-0.224-1.76-0.221-2.62,0.312   c0.135,0.305,0.397,0.404,0.615,0.55c1.175,0.785,2.329,1.602,3.527,2.35c2.496,1.559,5.077,2.969,7.791,4.113   c1.588,0.67,3.258,0.749,4.933,0.576c0.722-3.427,1.742-6.655,4.344-9.393C62.266,48.193,61.845,48.541,61.424,48.9z"/><path fill="none" d="M55.173,45.672c0.699-1.592,0.612-3.263,0.372-4.869c-0.329-2.203-2.427-3.186-4.324-2.219   c-0.537,0.274-0.975,0.635-1.055,1.266c0.434,0.56,1.037,0.788,1.564,1.118c0.961,0.603,1.57,1.464,1.66,2.579   c0.113,1.405,0.175,2.83-0.638,4.331C54.022,47.419,54.718,46.708,55.173,45.672z"/><path fill="none" d="M51.566,42.265c-0.501-0.428-1.103-0.738-1.659-1.102c-0.289-0.189-0.533-0.523-0.922-0.447   c-1.094,0.213-2.225,0.333-3.211,1.021c0.462,1.416,1.513,1.884,2.796,2.024c0.984,0.107,1.974,0.009,3.132-0.011   c-0.92,1.181-2.076,0.565-3.176,0.834c0.754,0.299,1.409,0.369,2.075,0.332c0.636-0.035,1.338-0.104,1.598-0.764   C52.487,43.419,52.125,42.742,51.566,42.265z"/><path fill="none" d="M51.771,47.389c0.285-0.402,0.469-0.726,0.446-1.279c-1.075,0.755-2.299,0.604-3.452,1.054   C49.816,47.519,50.802,46.971,51.771,47.389z"/><path fill="none" d="M45.295,43.774c0.881,1.782,2.426,2.353,4.279,2.378c1.616,0.022,2.414-0.246,2.718-0.979   C49.629,46.025,47.354,45.488,45.295,43.774z"/><path fill="none" d="M66.057,36.759c-1.584-0.679-3.108-1.501-4.377-2.723c-0.451-0.435-0.999-0.779-1.594-0.991   c-1.299-0.462-3.025-0.785-4.057,0.694c0.55,0.192,1.114,0.34,1.636,0.581c3.492,1.611,6.154,4.173,8.248,7.345   c0.821,1.244,0.86,2.642,0.112,3.916c-0.772,1.316-1.613,2.622-2.617,3.763c-1.615,1.836-2.384,4.034-3.072,6.29   c-0.132,0.433-0.381,0.873-0.181,1.535c1.397-0.449,2.475-1.224,3.329-2.368c1.714-2.298,3.397-4.625,5.222-6.832   c1.578-1.908,2.152-4.054,2.082-6.451c-0.012-0.403-0.083-0.772-0.357-1.093C69.18,38.957,67.905,37.552,66.057,36.759z"/><path fill="none" d="M48.813,23.586c0.789-1.666,2.243-2.062,3.613-2.641c-0.486,1.479-1.667,2.503-2.349,3.796   c0.152,0.234,0.316,0.312,0.532,0.281c0.199-0.101,0.2-0.323,0.3-0.485c0.738-1.2,1.382-2.469,2.465-3.419   c0.081-0.071,0.216-0.098,0.31,0.021c0.231,0.292-0.181,0.609-0.036,0.906c0.725-0.265,0.943-1.553,1.991-0.822   c0.607-0.305,0.938-1.078,1.779-1.01c-0.09,0.565-0.507,0.855-0.723,1.344c0.86-0.515,1.416-1.459,2.701-1.527   c-1.132,1.456-2.512,2.465-3.22,3.987c4.092-4.001,4.784-4.546,6.253-4.661c-2.569,2.433-5.414,4.366-6.67,7.653   c1.788-2.097,3.325-4.475,6.131-5.422c-1.407,1.823-3.388,3.152-4.543,5.263c0.68,0.117,0.829-0.366,1.065-0.689   c0.816-1.116,1.707-2.158,2.847-2.957c0.322-0.226,0.655-0.564,1.204-0.237c-0.942,1.358-2.424,2.214-3.043,3.752   c0.583-0.295,0.897-0.848,1.31-1.302c0.395-0.434,0.693-1.012,1.487-1.077c-0.17,1.071-1.073,1.607-1.42,2.52   c0.786-0.146,0.953-1.206,1.828-0.969c0.025,0.599-0.552,0.79-0.719,1.3c0.452,0.334,0.921,0.452,1.377,0.51   c2.263,0.288,4.546,0.532,6.812,0.22c2.071-0.286,3.869,0.123,5.546,1.363c1.253,0.926,2.59,1.738,4.08,2.727   c-0.068-1.802-0.256-3.373-0.663-4.917c-0.057-0.217-0.216-0.425-0.374-0.593c-1.879-2-3.67-4.091-5.874-5.76   c-1.069-0.809-1.976-1.782-2.903-2.747c-1.438-1.495-2.918-2.954-4.667-4.117c-0.89-0.592-1.722-0.824-2.736-0.404   c-0.427,0.177-0.916,0.267-1.38,0.282c-3.433,0.11-6.744,1.038-10.125,1.491c-2.285,0.306-4.398,1.157-6.346,2.39   c-0.986,0.624-1.77,1.444-2.42,2.568c1.425,0.136,2.659,0.275,3.882,0.59C47.543,21.164,47.982,22.438,48.813,23.586z"/><path fill="none" d="M67.833,51.063c-1.299,1.174-0.564,2.598-1.027,3.73C67.502,53.718,67.765,52.538,67.833,51.063z"/><path fill="none" d="M69.386,37.346c0.978,1.314,2.122,2.271,3.074,2.475c-0.616-0.57-1.111-1.053-1.634-1.505   C70.394,37.943,69.959,37.565,69.386,37.346z"/><path fill="none" d="M74.051,48.702c-0.128-1.617-0.904-2.904-2.374-3.9c-0.497,1.83-1.52,3.173-2.588,4.496   c1.423,2.729,0.94,5.273-0.541,7.76c-0.807,1.355-1.773,2.592-2.715,3.848c-0.177,0.236-0.373,0.476-0.779,0.413   c0.017-0.855,0.623-1.313,1.039-1.837c1.109-1.394,2.068-2.867,2.693-4.54c0.565-1.512,0.678-3.025-0.102-4.667   c-0.068,0.251-0.124,0.353-0.118,0.452c0.207,3.838-1.839,6.712-4.067,9.505c-0.217,0.272-0.473,0.631-0.832,0.608   c-1.071-0.069-1.843,0.421-2.523,1.164c-0.412,0.449-0.946,0.697-1.532,0.829c-0.996,0.225-1.993,0.454-3.018,0.498   c-0.459,0.019-0.806,0.148-1.085,0.56c-0.681,1.007-1.674,1.63-2.766,2.124c-1.41,0.639-2.912,0.946-4.419,1.201   c-3.745,0.634-7.428,0.562-10.943-1.122c-0.505-0.242-1.04-0.419-1.71-0.684c0.396,1.675,1.203,2.784,2.431,3.593   c2.717,1.79,5.741,2.801,8.946,3.023c3.919,0.271,7.858,0.196,11.753-0.439c2.707-0.441,5.243-1.174,7.065-3.54   c1.207-1.568,2.49-3.144,4.389-4.021c0.783-0.362,1.531-0.801,2.36-1.058c0.675-0.209,0.854-0.624,0.593-1.262   c-0.225-0.55-0.313-1.13-0.396-1.716c-0.243-1.713,0.073-3.356,0.526-4.998C73.905,52.938,74.22,50.834,74.051,48.702z"/><path fill="none" d="M74.856,76.429c-2.725,1.039-5.517,1.811-8.438,2.03c-1.252,0.094-2.508,0.136-3.762,0.209   c-0.277,0.016-0.597-0.015-0.662,0.384c0.412,0.21,0.893-0.231,1.479,0.2c-2.974,1.224-5.956,0.648-8.859,0.924   c1.018,0.319,2.055,0.376,3.102,0.354c1.02-0.022,2.038,0.023,3.06-0.098c0.996-0.118,1.981-0.472,3.007-0.313   c-0.422,0.559-1.029,0.589-1.573,0.778c-0.273,0.095-0.696-0.026-0.791,0.366c-0.117,0.482-0.486,0.444-0.825,0.489   c-1.212,0.16-2.43,0.195-3.647,0.109c-0.689-0.049-1.306,0.23-1.959,0.335c-0.185,1.068-1.044,0.632-1.613,0.649   c-0.977,0.029-1.961-0.074-2.938-0.174c-4.09-0.419-8.119-1.182-11.749-3.185c-2.102-1.16-4.223-1.922-6.615-2.176   c-2.488-0.264-4.946-0.812-7.514-1.252c-0.035,0.257-0.096,0.389-0.058,0.479c0.775,1.84,1.265,3.804,2.368,5.5   c0.511,0.785,1.222,1.323,2.125,1.592c1.618,0.482,3.221,1.022,4.859,1.424c5.515,1.353,11.119,1.45,16.748,1.053   c1.371-0.097,2.736-0.293,4.107-0.355c3.032-0.137,6.051-0.079,8.981,0.879c0.507,0.166,0.988,0.154,1.409-0.283   c2.135-2.217,4.637-3.997,7.055-5.877c1.212-0.942,2.381-1.931,3.225-3.239c0.215-0.333,0.572-0.632,0.408-1.171   C75.433,76.201,75.146,76.319,74.856,76.429z"/><path fill="none" d="M46.794,79.287c1.253,0.564,2.515,0.773,3.806,0.939C48.876,79.157,48.157,78.982,46.794,79.287z"/><path fill="none" d="M74.86,43.246c1.667,3.108,3.09,6.316,4.244,9.644C78.601,49.277,76.801,46.226,74.86,43.246z"/><path fill="none" d="M89.375,41.912c-1.433-2.065-3.293-3.675-5.217-5.223c-2.906-2.339-6.033-4.376-9.07-6.535   c-1.627-1.157-3.298-1.394-5.226-1.165c-2.502,0.297-5.041,0.165-7.476-0.494c-1.663-0.45-3.307-0.656-4.996-0.516   c-1.819,0.15-3.504,0.695-4.939,1.945c0.858,1.059,1.213,2.209,1.374,3.419c0.548,0.198,0.92,0.301,1.357-0.266   c0.964-1.25,2.288-1.699,3.876-1.413c0.665,0.12,1.316,0.248,1.904,0.573c0.705,0.389,1.467,0.541,2.248,0.645   c2.737,0.362,5.312,1.255,7.5,2.914c6.166,4.676,9.889,10.752,10.261,18.643c0.007,0.146,0.038,0.312-0.261,0.45   c-0.641-2.542-0.947-5.152-1.921-7.581c-1.019-2.541-3.073-5.668-4.326-6.481c0.232,0.352,0.398,0.611,0.572,0.865   c1.64,2.414,2.977,4.987,4.063,7.693c0.146,0.363,0.343,0.741,0.351,1.116c0.033,1.5,0.418,2.945,0.635,4.415   c0.112,0.759-0.197,1.367-0.479,2.285c-0.96-2.073-1.249-4.112-2.206-5.898c0.433,2.6,1.118,5.154,1.26,7.809   c-0.534-0.331-0.473-0.958-0.846-1.462c0.12,1.24,0.391,2.408-0.078,3.568c-0.822-3.386-1.145-6.872-2.37-10.364   c-0.249,0.639-0.086,0.996,0.034,1.371c0.226,0.709,0.455,1.422,0.611,2.148c0.363,1.687,0.683,3.385,0.785,5.111   c0.029,0.493,0.102,1.057-0.575,1.543c-0.229-2.479-0.66-4.733-1.25-6.959c-0.855,1.812,0.616,3.512,0.238,5.44   c-0.894-0.634-0.443-1.724-1.178-2.403c-0.155,1.522-0.159,2.877,0.29,4.214c0.504,1.504,0.183,2.206-1.291,2.739   c-1.23,0.445-2.357,1.07-3.442,1.785c-0.293,0.193-0.53,0.393-0.639,0.787c-0.506,1.818-1.247,3.538-2.228,5.158   c-1.236,2.041-2.442,4.099-4.409,5.579c0.033,0.076,0.067,0.152,0.1,0.228c1.779-0.128,3.602-0.055,5.327-0.43   c2.984-0.648,5.958-1.405,8.702-2.852c3.354-1.769,5.955-4.235,7.256-7.85c1.046-2.906,2.303-5.668,4.293-8.065   c0.421-0.507,0.698-1.136,1.035-1.712c1.073-1.832,2.238-3.602,3.53-5.288c0.309-0.404,0.575-0.841,0.86-1.263   c0.817-1.204,0.606-2.295-0.171-3.48C92.112,44.93,90.536,43.586,89.375,41.912z M84.03,44.019c0.772-0.36,1.078-0.235,1.634,0.663   C84.839,45.058,84.584,44.954,84.03,44.019z"/><path fill="none" d="M43.789,37.809c-0.147,1.117,0.296,2.049,0.858,3.026c1.352-0.537,2.718-0.986,4.14-1.23   c0.193-0.033,0.401-0.073,0.469-0.291c0.228-0.729,0.845-1.189,1.358-1.878c-1.779-0.648-3.498-1.051-5.311-1.003   C44.295,36.46,43.918,36.826,43.789,37.809z"/><path fill="none" d="M50.793,30.111c-1.512-0.668-3.101-0.791-4.705-0.935c-2.111-0.19-3.998,0.638-5.958,1.187   c-2.078,0.583-3.692,1.75-4.757,3.6c-1.012,1.758-2.142,3.49-1.973,5.684c0.173,2.243,0.466,4.448,1.4,6.528   c0.531,1.184,0.886,2.427,1.176,3.697c0.51,2.229,0.805,4.481,0.95,6.758c0.041,0.638,0.107,1.355,0.772,1.613   c1.425,0.553,2.7,1.482,4.23,1.752c3.285,0.58,6.522,1.388,9.81,1.961c2.168,0.377,4.291,0.391,6.435,0.006   c2.21-0.397,3.816-2.129,4.101-4.399c-0.503,0.217-0.993,0.477-1.512,0.645c-2.617,0.847-5.182,0.588-7.721-0.371   c-1.739-0.657-3.251-1.745-4.924-2.522c-0.621-0.288-1.19-0.698-1.977-0.46c-0.408,0.124-0.819-0.209-1.17-0.467   c-0.61-0.448-1.088-1.016-1.479-1.661c-0.233-0.384-0.49-0.746-1.163-0.877c0.467,0.948,1.041,1.579,1.591,2.237   c0.535,0.641,1.448,0.863,1.872,1.608c-0.385,0.437-0.817,0.021-1.132,0.204c0.57,0.508,1.478,0.214,2.103,0.753   c-0.138,0.147-0.181,0.233-0.242,0.249c-0.15,0.038-0.308,0.057-0.463,0.061c-1.405,0.042-2.594-0.534-3.706-1.317   c-2.149-1.512-3.008-3.747-3.465-6.206c-0.381-2.05-1.008-4.014-1.99-5.864c-0.197-0.37-0.313-0.82-0.334-1.24   c-0.094-1.843-0.164-3.689-0.188-5.535c-0.006-0.513-0.059-1.109,0.593-1.608c0.896,1.626,0.281,3.443,0.821,5.209   c0.439-1.069,0.784-1.983,1.254-2.841c0.373-0.68,0.834-0.965,1.635-0.696c0.655,0.22,1.332,0.432,2.119,0.459   c0.409-1.839,1.824-2.041,3.316-1.936c0.61-1.625,0.614-1.599,2.302-1.809c1.019-0.127,2.035-0.138,3.057-0.138   c0.42,0,0.864,0.117,1.318-0.184C52.691,31.856,52.216,30.739,50.793,30.111z"/><path fill="none" d="M37.568,76.98c4.196,0.28,8.355,0.847,12.52,1.39c2.877,0.375,5.769,0.887,8.5-0.662   c0.167-0.095,0.379-0.104,0.56-0.179c1.38-0.567,2.738-1.145,3.779-2.301c1.541-1.709,2.65-3.689,3.727-5.694   c0.097-0.18,0.292-0.396,0.119-0.65c-0.239,0.08-0.403,0.255-0.54,0.444c-1.073,1.476-2.6,2.207-4.291,2.73   c-2.006,0.62-4.065,0.914-6.143,1.043c-4.507,0.279-9.027,0.671-13.438-0.786c-0.407-0.134-0.846-0.169-1.268-0.26   c-5.942-1.28-11.56-3.202-16.144-7.477c-2.613-2.437-4.688-5.168-5.843-8.562c-0.181-0.531-0.415-1.073-0.228-1.673   c0.331,0.083,0.37,0.343,0.456,0.55c0.681,1.638,1.582,3.119,2.757,4.471c1.215,1.398,2.444,2.764,3.881,3.936   c0.091,0.074,0.173,0.17,0.277,0.215c0.098,0.042,0.195,0.264,0.346,0.04c-1.088-1.255-2.427-2.306-3.04-3.961   c0.791,0.783,1.769,1.208,2.737,1.67c0.083-0.473-0.629-0.798-0.265-1.379c0.805,0.491,1.258,1.324,2.159,1.821   c-0.768-1.624-0.768-1.624-0.636-2.246c0.743,0.708,1.261,1.62,2.317,2.227c-0.407-0.973-1.231-1.513-1.14-2.583   c1.087,0.581,1.481,1.758,2.582,2.44c-0.564-1.107-1.175-1.999-1.486-2.986c-0.54-1.714-1.4-3.238-2.426-4.674   c-1.069-1.497-1.446-3.102-1.095-4.902c0.442-2.27,0.88-4.541,1.181-6.949c-1.863-0.294-3.489,0.032-4.982,1.101   c-2.023,1.448-3.662,3.324-5.561,4.909c-0.176,0.147-0.323,0.353-0.423,0.561c-1.488,3.107-2.732,6.344-2.603,9.812   c0.146,3.913,1.363,7.636,3.088,11.15c0.804,1.638,1.605,3.238,1.543,5.122c-0.007,0.221-0.037,0.479,0.268,0.634   c2.9-0.481,5.812-0.389,8.735,0.221C30.854,76.231,34.198,76.755,37.568,76.98z"/><path fill="none" d="M53.056,28.083c-0.519-0.861-1.335-1.329-2.208-1.69c-1.596-0.66-3.205-1.291-4.818-1.906   c-1.268-0.484-2.617-0.743-3.934-0.474c-1.956,0.399-3.937,0.695-5.852,1.319c-1.623,0.529-3.015,1.536-4.6,2.094   c-1.136,0.4-1.606,1.069-1.71,2.216c-0.221,2.421-0.489,4.839-0.796,7.251c-0.164,1.29-0.065,2.598-0.289,3.873   c-0.447,2.551-0.752,5.128-1.347,7.652c-0.461,1.953-0.167,3.686,1.105,5.313c0.888,1.136,1.585,2.437,2.052,3.82   c0.702,2.083,1.729,4.002,3.371,5.443c1.949,1.71,4.379,2.599,6.877,3.159c2.477,0.555,5,0.458,7.491-0.023   c1.733-0.334,3.476-0.676,4.988-1.679c0.372-0.247,0.802-0.45,0.893-1.027c-1.336-0.01-2.55-0.358-3.774-0.62   c-4.202-0.898-8.524-1.275-12.497-3.166c-1.386-0.66-2.115-1.503-2.217-2.992c-0.08-1.174-0.188-2.35-0.349-3.516   c-0.395-2.854-1.377-5.54-2.295-8.259c-1.216-3.602-1.466-7.234,0.762-10.638c0.086-0.131,0.147-0.278,0.231-0.41   c0.934-1.475,1.976-2.864,3.597-3.636c1.74-0.829,3.63-1.254,5.457-1.846c0.364-0.118,0.775-0.109,1.166-0.123   c2.448-0.089,4.855,0.102,7.105,1.161C51.963,28.852,52.701,28.729,53.056,28.083z"/><path fill="none" d="M17.64,45.816c0.832-0.585,1.568-1.342,2.185-2.18c-0.567-0.444-1.24-0.175-1.888-0.616   c0.979-0.469,1.845,0.026,2.833-0.082c-0.819-0.762-1.978-0.483-2.731-1.332c1.38-0.319,2.418,0.539,3.598,0.556   c-1.327-1.287-3.15-1.514-4.954-2.226c0.738-0.399,1.33-0.083,1.875-0.262c-0.242-0.276-0.712-0.184-0.806-0.616   c0.319-0.225,0.628-0.134,0.936-0.114c0.266,0.018,0.556,0.219,0.8-0.065c-0.385-0.423-1.144-0.285-1.46-0.952   c0.991-0.274,1.793,0.39,2.814,0.371c-0.763-0.557-1.653-0.515-2.331-0.997c0.375-0.374,0.799-0.088,1.153-0.242   c-0.139-0.231-0.562-0.141-0.566-0.51c0.269-0.301,0.72,0.056,0.994-0.271c-0.909-0.539-2.021-0.543-2.876-1.185   c3.656-0.036,6.637,1.654,9.479,3.744c-0.421-0.78-1.062-1.328-1.732-1.847c-0.656-0.508-1.393-0.877-2.128-1.254   c-0.716-0.368-1.576-0.474-2.138-1.13c2.898,0.195,5.16,1.594,7.024,3.843c0.383-0.681,0.309-1.112-0.206-1.535   c-1.45-1.192-2.758-2.578-4.581-3.246c-0.027-0.01-0.013-0.129-0.021-0.224c0.476-0.133,0.93-0.016,1.378,0.136   c0.506,0.172,0.996-0.134,1.602,0.029c-0.865-0.716-2.01-0.533-2.995-1.376c2.226-0.257,3.846,0.672,5.506,1.628   c0.051-0.334,0.086-0.526,0.108-0.719c0.158-1.405,0.288-2.814,0.479-4.215c0.106-0.778,0.243-1.61,1.103-1.951   c2.188-0.868,4.147-2.238,6.448-2.871c1.405-0.387,2.848-0.571,4.256-0.924c1.84-0.462,3.656-0.353,5.455,0.242   c0.387,0.128,0.759,0.39,1.232,0.32c-0.408-1.154-1.166-1.771-2.311-2.008c-0.774-0.16-1.545-0.278-2.331-0.296   c-2.357-0.054-4.718-0.022-7.069-0.165c-4.476-0.272-8.954-0.193-13.43-0.156c-1.714,0.014-3.433,0.195-5.093,0.48   c-1.088,4.56-2.711,8.487-4.869,11.506c-1.396,1.954-2.63,4-3.875,6.049c-2.096,3.449-2.603,7.183-2.261,11.111   c0.115,1.323,0.679,2.403,1.689,3.256c1.17,0.989,2.293,2.036,3.555,2.911c0.349,0.242,0.656,0.573,1.184,0.625   c0.322-1.895,0.828-3.748,1.391-5.582C14.739,49.274,15.642,47.221,17.64,45.816z"/><path fill="#bababa" d="M94.21,46.23c-1.716-2.601-4.058-4.693-5.806-7.263c-0.086-0.127-0.212-0.235-0.337-0.328   c-1.357-1.008-2.521-2.241-3.855-3.283c-1.113-0.869-2.267-1.673-3.458-2.427c0.25-1.888-0.23-3.655-0.435-5.444   c-0.072-0.63-0.346-1.213-0.788-1.685c-2.041-2.173-4.007-4.423-6.423-6.21c-0.824-0.609-1.503-1.374-2.213-2.111   c-1.77-1.837-3.57-3.639-5.811-4.939c-0.672-0.39-1.296-0.493-2.014-0.301c-0.72,0.193-1.436,0.416-2.188,0.454   c-3.582,0.183-7.075,0.981-10.58,1.633c-3.622,0.674-6.958,2.039-9.054,5.363c-0.351,0.557-0.803,0.495-1.318,0.498   c-3.378,0.016-6.748-0.306-10.129-0.231c-1.059,0.024-2.121-0.025-3.181-0.059c-3.031-0.099-6.05,0.07-9.058,0.415   c-1.521,0.174-1.513,0.208-1.709,1.687c-0.052,0.389-0.128,0.775-0.213,1.158c-0.775,3.469-2.446,6.547-4.357,9.477   c-1.33,2.041-2.65,4.082-3.891,6.179C5.19,42.53,4.689,46.549,5.164,50.749c0.141,1.245,0.647,2.37,1.6,3.203   c1.828,1.597,3.577,3.312,5.88,4.245c0.025,0.136,0.058,0.25,0.066,0.365c0.231,3.655,1.51,7.041,2.679,10.455   c0.075,0.22,0.205,0.425,0.327,0.626c1.054,1.739,1.822,3.549,1.732,5.656c-0.037,0.875,0.284,1.09,1.171,1.06   c0.391-0.013,0.783-0.074,1.168-0.147c1.126-0.216,2.255-0.212,3.323-0.134c0.783,1.918,1.495,3.782,2.302,5.604   c0.627,1.415,1.643,2.493,3.179,2.958c1.766,0.534,3.518,1.132,5.312,1.549c6.152,1.432,12.381,1.462,18.631,0.845   c3.698-0.365,7.374-0.459,10.975,0.682c0.962,0.305,1.775,0.108,2.445-0.661c0.778-0.894,1.701-1.626,2.626-2.359   c1.97-1.561,3.982-3.076,5.872-4.731c1.265-1.108,2.419-2.385,2.702-4.161c0.068-0.426,0.331-0.572,0.643-0.755   c3.678-2.151,6.245-5.202,7.51-9.304c0.667-2.163,1.807-4.065,3.064-5.94c1.966-2.932,3.637-6.06,5.808-8.862   c0.118-0.153,0.18-0.349,0.278-0.519C95.296,48.972,95.123,47.614,94.21,46.23z M44.651,17.637c1.948-1.234,4.061-2.084,6.346-2.39   c3.382-0.453,6.692-1.381,10.125-1.491c0.464-0.015,0.953-0.105,1.38-0.282c1.014-0.42,1.846-0.188,2.736,0.404   c1.749,1.163,3.229,2.622,4.667,4.117c0.927,0.965,1.834,1.938,2.903,2.747c2.204,1.669,3.995,3.76,5.874,5.76   c0.158,0.168,0.317,0.377,0.374,0.593c0.408,1.544,0.595,3.115,0.663,4.917c-1.49-0.989-2.827-1.801-4.08-2.727   c-1.677-1.24-3.475-1.649-5.546-1.363c-2.266,0.313-4.549,0.069-6.812-0.22c-0.456-0.058-0.924-0.176-1.377-0.51   c0.166-0.51,0.744-0.701,0.719-1.3c-0.875-0.238-1.041,0.823-1.828,0.969c0.348-0.914,1.25-1.449,1.42-2.52   c-0.794,0.065-1.092,0.643-1.487,1.077c-0.413,0.454-0.727,1.008-1.31,1.302c0.618-1.538,2.101-2.394,3.043-3.752   c-0.55-0.327-0.882,0.011-1.204,0.237c-1.139,0.799-2.031,1.841-2.847,2.957c-0.236,0.323-0.385,0.807-1.065,0.689   c1.155-2.112,3.136-3.44,4.543-5.263c-2.805,0.948-4.342,3.325-6.131,5.422c1.256-3.287,4.101-5.22,6.67-7.653   c-1.47,0.115-2.161,0.66-6.253,4.661c0.707-1.523,2.088-2.531,3.22-3.987c-1.284,0.068-1.841,1.012-2.701,1.527   c0.216-0.489,0.633-0.779,0.723-1.344c-0.841-0.068-1.172,0.706-1.779,1.01c-1.049-0.73-1.266,0.558-1.991,0.822   c-0.144-0.297,0.268-0.614,0.036-0.906c-0.095-0.12-0.229-0.093-0.31-0.021c-1.082,0.95-1.726,2.219-2.465,3.419   c-0.1,0.162-0.101,0.384-0.3,0.485c-0.216,0.03-0.38-0.047-0.532-0.281c0.682-1.293,1.863-2.317,2.349-3.796   c-1.37,0.579-2.824,0.975-3.613,2.641c-0.831-1.148-1.27-2.422-2.7-2.79c-1.224-0.315-2.457-0.455-3.882-0.59   C42.882,19.081,43.666,18.262,44.651,17.637z M72.812,59.992c0.083,0.586,0.171,1.165,0.396,1.716   c0.261,0.637,0.082,1.053-0.593,1.262c-0.829,0.256-1.577,0.696-2.36,1.058c-1.899,0.877-3.182,2.452-4.389,4.021   c-1.821,2.366-4.357,3.099-7.065,3.54c-3.895,0.635-7.834,0.71-11.753,0.439c-3.205-0.222-6.23-1.233-8.946-3.023   c-1.229-0.809-2.036-1.918-2.431-3.593c0.67,0.266,1.205,0.443,1.71,0.684c3.515,1.685,7.198,1.757,10.943,1.122   c1.508-0.255,3.009-0.562,4.419-1.201c1.092-0.495,2.085-1.117,2.766-2.124c0.279-0.412,0.626-0.541,1.085-0.56   c1.025-0.043,2.022-0.273,3.018-0.498c0.585-0.132,1.12-0.38,1.532-0.829c0.68-0.743,1.452-1.232,2.523-1.164   c0.36,0.023,0.616-0.337,0.832-0.608c2.228-2.793,4.274-5.668,4.067-9.505c-0.005-0.098,0.05-0.2,0.118-0.452   c0.78,1.642,0.667,3.155,0.102,4.667c-0.625,1.672-1.584,3.146-2.693,4.54c-0.417,0.523-1.022,0.982-1.039,1.837   c0.406,0.063,0.602-0.177,0.779-0.413c0.942-1.257,1.908-2.493,2.715-3.848c1.482-2.487,1.965-5.032,0.541-7.76   c1.068-1.323,2.09-2.666,2.588-4.496c1.47,0.997,2.246,2.284,2.374,3.9c0.169,2.132-0.146,4.236-0.713,6.292   C72.884,56.636,72.569,58.279,72.812,59.992z M66.806,54.793c0.463-1.131-0.272-2.556,1.027-3.73   C67.765,52.538,67.502,53.718,66.806,54.793z M69.386,37.346c0.573,0.219,1.008,0.598,1.44,0.971   c0.523,0.452,1.018,0.935,1.634,1.505C71.508,39.617,70.365,38.66,69.386,37.346z M70.432,40.425   c0.274,0.321,0.345,0.69,0.357,1.093c0.07,2.398-0.505,4.543-2.082,6.451c-1.825,2.208-3.508,4.534-5.222,6.832   c-0.854,1.144-1.932,1.919-3.329,2.368c-0.2-0.662,0.049-1.102,0.181-1.535c0.688-2.256,1.457-4.454,3.072-6.29   c1.003-1.141,1.844-2.448,2.617-3.763c0.747-1.274,0.709-2.672-0.112-3.916c-2.094-3.172-4.756-5.735-8.248-7.345   c-0.522-0.241-1.086-0.388-1.636-0.581c1.032-1.479,2.758-1.156,4.057-0.694c0.595,0.212,1.143,0.556,1.594,0.991   c1.268,1.223,2.793,2.044,4.377,2.723C67.905,37.552,69.18,38.957,70.432,40.425z M58.795,57.418   c-1.675,0.174-3.345,0.094-4.933-0.576c-2.715-1.145-5.295-2.554-7.791-4.113c-1.198-0.748-2.352-1.565-3.527-2.35   c-0.218-0.146-0.48-0.245-0.615-0.55c0.861-0.533,1.731-0.537,2.62-0.312c2.783,0.703,5.474,1.664,8.065,2.9   c1.45,0.691,2.975,0.695,4.495,0.447c0.948-0.154,1.727-0.697,2.294-1.524c0.599-0.873,1.205-1.745,2.022-2.441   c0.42-0.358,0.842-0.706,1.715-0.875C60.536,50.763,59.517,53.991,58.795,57.418z M60.581,37.377   c1.759,1.327,3.186,3.029,4.38,4.895c0.751,1.173,0.503,2.598-0.546,3.502c-0.476,0.411-0.959,0.842-1.56,1.043   c-1.691,0.566-2.837,1.769-3.85,3.156c-1.461,2.001-3.541,2.563-5.765,1.524c-2.603-1.217-5.294-2.173-8.063-2.934   c-1.135-0.312-2.218-0.347-3.346,0.06c-1.248,0.451-1.479,0.298-2.112-0.908c-0.643-1.224-0.937-2.579-1.464-3.846   c-0.087-0.209-0.156-0.492-0.086-0.688c0.63-1.754,0.741-3.701,1.944-5.281c0.665-0.116,1.293,0.219,1.956,0.234   c0.401,0.009,0.624,0.266,0.666,0.685c0.064,0.641,0.382,1.183,0.673,1.744c0.308,0.593,0.459,1.228,0.449,1.923   c-0.028,1.967,0.838,3.539,2.245,4.867c1.467,1.386,3.172,2.139,5.206,2.104c0.194-0.003,0.391,0.034,0.584,0.068   c3.711,0.64,7.744-1.223,9.61-4.488c0.408-0.714,0.906-1.464,0.467-2.536c-0.633,0.471-0.584,1.181-1.119,1.61   c0.094-1.09,0.813-2.007,0.511-3.304c-0.911,1.393-1.076,2.951-2.259,4.281c0.426-1.611,1.584-2.765,1.128-4.465   c-0.527,0.976-0.715,1.993-1.511,2.897c0.262-1.472,1.14-2.827-0.096-4.046c-0.5,0.02-0.352,0.482-0.558,0.706   c-0.142-0.43-0.181-0.93-0.852-1.074c-0.123,0.936,0.256,1.898-0.37,2.807c-0.098-1.737-0.716-3.18-1.994-4.257   c-0.978-0.824-2.181-0.403-3.404-0.46c-0.884-1.49-2.736-1.061-4.044-1.721c-0.113-0.413,0.004-0.624,0.326-0.707   c0.151-0.039,0.308-0.066,0.464-0.078c2.311-0.177,4.616-0.258,6.929,0.062C57.239,35.04,58.962,36.156,60.581,37.377z    M53.39,43.548c-0.09-1.116-0.699-1.977-1.66-2.579c-0.527-0.33-1.13-0.558-1.564-1.118c0.08-0.631,0.517-0.992,1.055-1.266   c1.897-0.967,3.995,0.015,4.324,2.219c0.24,1.606,0.327,3.277-0.372,4.869c-0.455,1.036-1.151,1.747-2.421,2.207   C53.565,46.378,53.503,44.953,53.39,43.548z M49.574,46.153c-1.853-0.026-3.398-0.597-4.279-2.378   c2.059,1.713,4.333,2.251,6.997,1.4C51.988,45.906,51.19,46.175,49.574,46.153z M52.217,46.11c0.023,0.553-0.16,0.878-0.446,1.279   c-0.969-0.418-1.956,0.13-3.007-0.225C49.917,46.714,51.141,46.865,52.217,46.11z M52.199,44.151   c-0.26,0.66-0.962,0.729-1.598,0.764c-0.666,0.037-1.32-0.032-2.075-0.332c1.1-0.269,2.256,0.347,3.176-0.834   c-1.158,0.02-2.148,0.118-3.132,0.011c-1.283-0.14-2.334-0.608-2.796-2.024c0.986-0.689,2.117-0.809,3.211-1.021   c0.389-0.076,0.633,0.258,0.922,0.447c0.557,0.363,1.158,0.674,1.659,1.102C52.125,42.742,52.487,43.419,52.199,44.151z    M49.256,39.315c-0.068,0.217-0.276,0.257-0.469,0.291c-1.423,0.244-2.788,0.694-4.14,1.23c-0.562-0.978-1.004-1.909-0.858-3.026   c0.129-0.983,0.507-1.349,1.515-1.376c1.813-0.048,3.532,0.355,5.311,1.003C50.1,38.126,49.483,38.586,49.256,39.315z    M51.471,33.436c-1.022,0-2.038,0.011-3.057,0.138c-1.689,0.21-1.692,0.184-2.302,1.809c-1.492-0.105-2.907,0.098-3.316,1.936   c-0.787-0.027-1.464-0.239-2.119-0.459c-0.801-0.269-1.262,0.016-1.635,0.696c-0.471,0.859-0.816,1.772-1.254,2.841   c-0.54-1.766,0.074-3.583-0.821-5.209c-0.652,0.499-0.599,1.095-0.593,1.608c0.023,1.846,0.093,3.691,0.188,5.535   c0.021,0.42,0.138,0.87,0.334,1.24c0.982,1.85,1.609,3.814,1.99,5.864c0.457,2.459,1.316,4.694,3.465,6.206   c1.112,0.783,2.3,1.359,3.706,1.317c0.155-0.005,0.313-0.023,0.463-0.061c0.061-0.016,0.104-0.102,0.242-0.249   c-0.624-0.539-1.532-0.245-2.103-0.753c0.316-0.183,0.748,0.232,1.132-0.204c-0.425-0.745-1.337-0.967-1.872-1.608   c-0.549-0.658-1.123-1.289-1.591-2.237c0.672,0.131,0.93,0.494,1.163,0.877c0.392,0.645,0.869,1.213,1.479,1.661   c0.351,0.258,0.763,0.591,1.17,0.467c0.786-0.238,1.356,0.171,1.977,0.46c1.673,0.777,3.185,1.865,4.924,2.522   c2.539,0.959,5.105,1.219,7.721,0.371c0.519-0.168,1.009-0.428,1.512-0.645c-0.285,2.27-1.891,4.002-4.101,4.399   c-2.144,0.385-4.267,0.371-6.435-0.006c-3.288-0.572-6.525-1.381-9.81-1.961c-1.53-0.27-2.806-1.199-4.23-1.752   c-0.665-0.258-0.731-0.975-0.772-1.613c-0.146-2.277-0.44-4.529-0.95-6.758c-0.29-1.27-0.645-2.513-1.176-3.697   c-0.934-2.08-1.227-4.285-1.4-6.528c-0.169-2.194,0.962-3.925,1.973-5.684c1.064-1.85,2.679-3.017,4.757-3.6   c1.959-0.55,3.847-1.377,5.958-1.187c1.604,0.144,3.193,0.267,4.705,0.935c1.423,0.628,1.898,1.744,1.996,3.141   C52.336,33.554,51.891,33.436,51.471,33.436z M51.464,29.381c-2.25-1.059-4.657-1.249-7.105-1.161   c-0.391,0.014-0.802,0.005-1.166,0.123c-1.827,0.592-3.716,1.016-5.457,1.846c-1.62,0.772-2.663,2.161-3.597,3.636   c-0.084,0.133-0.145,0.279-0.231,0.41c-2.228,3.403-1.978,7.036-0.762,10.638c0.918,2.719,1.9,5.405,2.295,8.259   c0.161,1.166,0.269,2.341,0.349,3.516c0.102,1.489,0.831,2.332,2.217,2.992c3.972,1.891,8.295,2.268,12.497,3.166   c1.224,0.262,2.439,0.61,3.774,0.62c-0.091,0.577-0.521,0.78-0.893,1.027c-1.513,1.003-3.255,1.345-4.988,1.679   c-2.491,0.481-5.014,0.578-7.491,0.023c-2.498-0.56-4.928-1.449-6.877-3.159c-1.642-1.441-2.669-3.36-3.371-5.443   c-0.466-1.383-1.163-2.684-2.052-3.82c-1.273-1.628-1.566-3.36-1.105-5.313c0.595-2.523,0.9-5.101,1.347-7.652   c0.223-1.274,0.125-2.583,0.289-3.873c0.306-2.412,0.575-4.83,0.796-7.251c0.104-1.147,0.574-1.817,1.71-2.216   c1.585-0.558,2.977-1.566,4.6-2.094c1.914-0.623,3.896-0.919,5.852-1.319c1.318-0.269,2.666-0.01,3.934,0.474   c1.614,0.616,3.222,1.246,4.818,1.906c0.873,0.361,1.689,0.828,2.208,1.69C52.701,28.729,51.963,28.852,51.464,29.381z    M12.673,57.057c-0.529-0.053-0.835-0.383-1.184-0.625c-1.262-0.875-2.385-1.922-3.555-2.911c-1.009-0.853-1.574-1.933-1.689-3.256   c-0.342-3.928,0.165-7.662,2.261-11.111c1.245-2.049,2.479-4.096,3.875-6.049c2.158-3.019,3.781-6.946,4.869-11.506   c1.66-0.285,3.379-0.466,5.093-0.48c4.477-0.037,8.954-0.116,13.43,0.156c2.351,0.143,4.713,0.111,7.069,0.165   c0.786,0.018,1.557,0.136,2.331,0.296c1.145,0.237,1.903,0.854,2.311,2.008c-0.474,0.07-0.845-0.192-1.232-0.32   c-1.799-0.595-3.614-0.703-5.455-0.242c-1.409,0.353-2.851,0.537-4.256,0.924c-2.3,0.633-4.259,2.003-6.448,2.871   c-0.86,0.341-0.996,1.173-1.103,1.951c-0.191,1.4-0.321,2.809-0.479,4.215c-0.022,0.193-0.057,0.384-0.108,0.719   c-1.66-0.956-3.28-1.885-5.506-1.628c0.984,0.843,2.13,0.66,2.995,1.376c-0.606-0.163-1.096,0.143-1.602-0.029   c-0.447-0.152-0.901-0.269-1.378-0.136c0.008,0.096-0.006,0.215,0.021,0.224c1.822,0.667,3.131,2.054,4.581,3.246   c0.514,0.423,0.589,0.854,0.206,1.535c-1.864-2.249-4.127-3.648-7.024-3.843c0.562,0.656,1.422,0.762,2.138,1.13   c0.735,0.378,1.472,0.746,2.128,1.254c0.67,0.519,1.311,1.068,1.732,1.847c-2.841-2.09-5.823-3.78-9.479-3.744   c0.855,0.642,1.967,0.646,2.876,1.185c-0.274,0.327-0.725-0.03-0.994,0.271c0.004,0.37,0.427,0.28,0.566,0.51   c-0.354,0.154-0.777-0.132-1.153,0.242c0.678,0.483,1.568,0.44,2.331,0.997c-1.021,0.018-1.822-0.645-2.814-0.371   c0.316,0.667,1.075,0.529,1.46,0.952c-0.245,0.283-0.534,0.083-0.8,0.065c-0.307-0.021-0.616-0.111-0.936,0.114   c0.094,0.432,0.564,0.34,0.806,0.616c-0.546,0.179-1.138-0.138-1.875,0.262c1.804,0.711,3.627,0.938,4.954,2.226   c-1.18-0.017-2.217-0.875-3.598-0.556c0.753,0.848,1.911,0.57,2.731,1.332c-0.988,0.108-1.854-0.387-2.833,0.082   c0.648,0.441,1.321,0.173,1.888,0.616c-0.617,0.837-1.353,1.595-2.185,2.18c-1.998,1.405-2.901,3.458-3.576,5.66   C13.501,53.31,12.995,55.162,12.673,57.057z M18.813,75.32c-0.305-0.155-0.275-0.413-0.268-0.634   c0.062-1.884-0.739-3.484-1.543-5.122c-1.725-3.515-2.942-7.237-3.088-11.15c-0.129-3.467,1.115-6.704,2.603-9.812   c0.099-0.208,0.247-0.414,0.423-0.561c1.898-1.585,3.537-3.461,5.561-4.909c1.493-1.069,3.119-1.395,4.982-1.101   c-0.301,2.408-0.739,4.679-1.181,6.949c-0.351,1.8,0.026,3.405,1.095,4.902c1.025,1.436,1.886,2.96,2.426,4.674   c0.311,0.987,0.922,1.879,1.486,2.986c-1.101-0.682-1.495-1.859-2.582-2.44c-0.091,1.07,0.733,1.61,1.14,2.583   c-1.056-0.607-1.574-1.519-2.317-2.227c-0.132,0.622-0.132,0.622,0.636,2.246c-0.901-0.496-1.354-1.329-2.159-1.821   c-0.364,0.581,0.349,0.906,0.265,1.379c-0.969-0.462-1.947-0.887-2.737-1.67c0.613,1.655,1.952,2.706,3.04,3.961   c-0.15,0.224-0.248,0.002-0.346-0.04c-0.104-0.045-0.186-0.141-0.277-0.215c-1.437-1.172-2.666-2.538-3.881-3.936   c-1.175-1.352-2.076-2.833-2.757-4.471c-0.086-0.206-0.125-0.467-0.456-0.55c-0.187,0.601,0.048,1.142,0.228,1.673   c1.155,3.393,3.23,6.125,5.843,8.562c4.585,4.275,10.203,6.196,16.144,7.477c0.422,0.091,0.861,0.126,1.268,0.26   c4.411,1.457,8.931,1.065,13.438,0.786c2.078-0.129,4.136-0.423,6.143-1.043c1.691-0.523,3.218-1.254,4.291-2.73   c0.137-0.189,0.301-0.364,0.54-0.444c0.172,0.254-0.022,0.47-0.119,0.65c-1.077,2.005-2.187,3.985-3.727,5.694   c-1.041,1.155-2.399,1.734-3.779,2.301c-0.181,0.074-0.393,0.084-0.56,0.179c-2.732,1.549-5.623,1.037-8.5,0.662   c-4.164-0.543-8.324-1.11-12.52-1.39c-3.37-0.225-6.714-0.749-10.02-1.439C24.625,74.931,21.714,74.838,18.813,75.32z M50.6,80.225   c-1.291-0.166-2.553-0.374-3.806-0.939C48.157,78.982,48.876,79.157,50.6,80.225z M75.377,77.232   c-0.843,1.308-2.013,2.297-3.225,3.239c-2.418,1.88-4.919,3.66-7.055,5.877c-0.421,0.437-0.902,0.449-1.409,0.283   c-2.93-0.957-5.949-1.016-8.981-0.879c-1.372,0.062-2.737,0.258-4.107,0.355c-5.629,0.397-11.233,0.3-16.748-1.053   c-1.638-0.402-3.241-0.942-4.859-1.424c-0.902-0.269-1.614-0.807-2.125-1.592c-1.103-1.696-1.593-3.661-2.368-5.5   c-0.038-0.09,0.024-0.222,0.058-0.479c2.569,0.44,5.026,0.988,7.514,1.252c2.392,0.254,4.513,1.017,6.615,2.176   c3.63,2.003,7.659,2.765,11.749,3.185c0.976,0.1,1.961,0.203,2.938,0.174c0.569-0.017,1.428,0.419,1.613-0.649   c0.654-0.105,1.27-0.384,1.959-0.335c1.217,0.086,2.435,0.051,3.647-0.109c0.339-0.045,0.708-0.007,0.825-0.489   c0.095-0.393,0.518-0.271,0.791-0.366c0.543-0.189,1.15-0.219,1.573-0.778c-1.026-0.16-2.011,0.194-3.007,0.313   c-1.022,0.121-2.04,0.076-3.06,0.098c-1.046,0.023-2.084-0.035-3.102-0.354c2.903-0.277,5.885,0.3,8.859-0.924   c-0.586-0.432-1.067,0.01-1.479-0.2c0.065-0.399,0.386-0.367,0.662-0.384c1.254-0.073,2.51-0.115,3.762-0.209   c2.921-0.219,5.712-0.992,8.438-2.03c0.29-0.111,0.577-0.229,0.929-0.369C75.949,76.6,75.592,76.898,75.377,77.232z M93.414,50.132   c-0.286,0.422-0.551,0.859-0.86,1.263c-1.292,1.686-2.457,3.456-3.53,5.288c-0.338,0.576-0.614,1.204-1.035,1.712   c-1.989,2.397-3.247,5.159-4.293,8.065c-1.301,3.615-3.902,6.081-7.256,7.85c-2.744,1.447-5.718,2.204-8.702,2.852   c-1.726,0.375-3.548,0.302-5.327,0.43c-0.033-0.076-0.067-0.152-0.1-0.228c1.967-1.48,3.174-3.538,4.409-5.579   c0.981-1.62,1.722-3.34,2.228-5.158c0.11-0.394,0.346-0.593,0.639-0.787c1.085-0.715,2.212-1.339,3.442-1.785   c1.474-0.533,1.795-1.235,1.291-2.739c-0.448-1.338-0.445-2.693-0.29-4.214c0.736,0.679,0.284,1.769,1.178,2.403   c0.378-1.928-1.093-3.628-0.238-5.44c0.59,2.226,1.02,4.481,1.25,6.959c0.677-0.486,0.605-1.049,0.575-1.543   c-0.102-1.726-0.423-3.424-0.785-5.111c-0.156-0.726-0.385-1.439-0.611-2.148c-0.12-0.375-0.283-0.732-0.034-1.371   c1.225,3.492,1.548,6.978,2.37,10.364c0.47-1.16,0.198-2.328,0.078-3.568c0.372,0.503,0.312,1.13,0.846,1.462   c-0.141-2.655-0.827-5.209-1.26-7.809c0.957,1.785,1.246,3.825,2.206,5.898c0.282-0.917,0.591-1.526,0.479-2.285   c-0.217-1.47-0.602-2.915-0.635-4.415c-0.008-0.375-0.205-0.753-0.351-1.116c-1.086-2.706-2.423-5.279-4.063-7.693   c-0.173-0.255-0.34-0.514-0.572-0.865c1.253,0.813,3.307,3.94,4.326,6.481c0.974,2.43,1.28,5.039,1.921,7.581   c0.299-0.138,0.268-0.304,0.261-0.45c-0.372-7.891-4.096-13.968-10.261-18.643c-2.188-1.659-4.763-2.552-7.5-2.914   c-0.782-0.103-1.543-0.256-2.248-0.645c-0.588-0.324-1.239-0.453-1.904-0.573c-1.587-0.286-2.912,0.163-3.876,1.413   c-0.437,0.567-0.809,0.464-1.357,0.266c-0.161-1.21-0.517-2.36-1.374-3.419c1.435-1.249,3.12-1.794,4.939-1.945   c1.689-0.14,3.333,0.066,4.996,0.516c2.435,0.659,4.974,0.791,7.476,0.494c1.928-0.229,3.599,0.009,5.226,1.165   c3.037,2.16,6.163,4.197,9.07,6.535c1.924,1.548,3.784,3.158,5.217,5.223c1.161,1.674,2.737,3.018,3.867,4.74   C94.02,47.838,94.231,48.928,93.414,50.132z M74.86,43.246c1.941,2.981,3.741,6.031,4.244,9.644   C77.95,49.562,76.527,46.354,74.86,43.246z"/><path d="M84.03,44.019c0.554,0.936,0.808,1.039,1.634,0.663C85.108,43.783,84.802,43.659,84.03,44.019z"/></g></svg>