<svg xmlns:dc="http://purl.org/dc/elements/1.1/" xmlns:cc="http://creativecommons.org/ns#" xmlns:rdf="http://www.w3.org/1999/02/22-rdf-syntax-ns#" xmlns:svg="http://www.w3.org/2000/svg" xmlns="http://www.w3.org/2000/svg" xmlns:sodipodi="http://sodipodi.sourceforge.net/DTD/sodipodi-0.dtd" xmlns:inkscape="http://www.inkscape.org/namespaces/inkscape" version="1.1" x="0px" y="0px" viewBox="0 0 100 125" enable-background="new 0 0 255.705 243.625" xml:space="preserve"><path style="opacity:1;fill:#bababa;fill-opacity:1;stroke:none;stroke-width:0.25;stroke-linecap:butt;stroke-linejoin:round;stroke-miterlimit:10;stroke-dasharray:none;stroke-dashoffset:12.399999;stroke-opacity:1;paint-order:normal" d="m 58.4181,6.5506 c -0.3123,0.0129 -0.6959,0.0428 -1.1914,0.0859 -2.795,0.24311 -8.902,0.24054 -12.5,-0.006 -4.916,-0.33665 -8.4336,0.82018 -11.4356,3.7617 -0.861,0.8431 -1.5644,1.6306 -1.5644,1.75 10e-4,0.1194 1.0405,0.2311 2.3125,0.2461 1.294,0.015 3.0275,0.215 3.9375,0.4551 1.664,0.439 5.729,2.2664 6.625,2.9785 0.275,0.2184 0.5112,0.4062 0.5312,0.4062 0.016,0 1.198,-0.5486 2.625,-1.2285 1.427,-0.68 3.4938,-1.4794 4.5938,-1.7754 1.44,-0.3875 2.245,-0.765 2.875,-1.3476 1.503,-1.3894 3.0678,-2.54938 4.5898,-3.4004 L 61.2813,7.65607 60.3165,7.05451 C 59.6408,6.63324 59.355,6.51199 58.4181,6.5506 Z m 8.5468,1.25586 c -2.9125,-0.0851 -6.3195,1.15556 -9.123,3.37494 l -1.4902,1.1797 2.625,0.1602 c 2.909,0.179 3.9636,0.4367 6.0136,1.4707 3.998,2.0163 7.5008,6.5981 8.8868,11.6191 0.632,2.2891 0.7554,7.9572 0.2324,10.7442 -1.01,5.3945 -3.5616,11.3815 -6.3106,14.8125 -0.757,0.9453 -0.8736,1.301 -1.0976,3.375 -0.436,4.0463 -1.631,10.1015 -2.375,12.041 v 0 c -0.194,0.5052 0.1063,0.5062 2.4453,0.016 3.602,-0.755 3.5556,-0.7305 3.9316,-2.002 0.517,-1.7507 2.1567,-3.7598 5.5567,-6.8066 5.566,-4.9882 7.1279,-7.4967 7.5859,-12.1875 0.207,-2.1217 0.6793,-4.947 1.3613,-8.1192 1.106,-5.1441 0.3999,-8.6597 -3.2441,-16.125 C 78.112,13.4727 73.3258,8.80703 68.1798,7.9256 67.7872,7.85834 67.381,7.81862 66.9649,7.80646 Z M 33.6017,13.4939 c -6.417,0 -11.3104,3.7693 -16.6954,12.8672 -0.895,1.5125 -2.0807,3.263 -2.6347,3.8907 l -1.0059,1.1406 0.4414,0.9844 c 0.243,0.541 0.8411,1.6078 1.3301,2.371 1.933,3.0073 2.3871,5.3246 1.9141,9.6719 -0.382,3.5172 -0.1656,4.3992 1.4824,6.0449 0.643,0.6415 2.667,2.0618 4.498,3.1563 4.926,2.9435 6.9174,4.933 7.9414,7.9375 0.214,0.6305 0.5786,1.1968 0.8086,1.2578 0.626,0.1658 1.045,0.1844 1.045,0.047 0,-0.067 -0.2232,-0.939 -0.4942,-1.9375 -0.999,-3.6735 -1.3376,-6.6177 -1.3476,-11.6914 -0.01,-4.9463 0.203,-7.0395 1.125,-11.043 l 0.5,-2.1699 -0.7559,-2.3301 c -2.838,-8.7523 -1.8505,-15.0265 2.6055,-16.5449 1.592,-0.5421 4.2754,-0.5196 6.6914,0.059 1.855,0.4437 1.9743,0.4454 2.4863,0.031 0.536,-0.4343 0.5338,-0.4372 -0.8242,-1.2187 -2.789,-1.6047 -6.1043,-2.5235 -9.1113,-2.5235 z m 24.25,0.1446 c -3.576,0.033 -6.034,0.6668 -10,2.5801 -3.886,1.875 -3.843,1.7367 -0.961,2.9667 1.353,0.5775 2.8597,1.051 3.3457,1.0508 2.078,0 5.4913,1.3396 8.1153,3.1875 3.854,2.7136 6.7703,5.3479 7.1113,6.4239 0.77,2.424 1.5195,10.1745 1.5195,15.8515 v 0 4.6621 l 0.4864,-0.625 c 0.737,-0.9495 3.1058,-5.6518 3.8418,-7.625 0.969,-2.5958 1.6025,-5.2934 1.9335,-8.2383 1.003,-8.9115 -3.5086,-17.1922 -10.7246,-19.6855 -1.413,-0.4879 -2.1378,-0.5728 -4.6718,-0.5488 z m -21.2012,4.248 c -0.3344,0.013 -0.6417,0.045 -0.918,0.098 -1.601,0.3035 -2.004,0.5225 -2.959,1.6094 -1.871,2.1312 -1.962,6.7646 -0.248,12.6074 l 0.541,1.8418 0.8477,-1.6856 c 1.425,-2.8255 3.6675,-4.6211 5.7675,-4.6211 0.401,0 0.5605,-0.2071 0.6875,-0.8886 0.365,-1.9419 3.4775,-5.1549 5.7735,-5.959 l 0.959,-0.336 -1,-0.4277 c -3.4519,-1.4783 -7.1102,-2.3296 -9.4512,-2.2383 z m 13.1816,3.4668 c -1.4302,-0.017 -2.8269,0.3343 -4.1289,1.043 -1.43,0.7783 -3.6334,3.0055 -3.8574,3.8984 -0.312,1.2451 1.8712,5.5115 4.0742,7.9629 l 1.1817,1.3164 0.1816,-1.4433 c 0.206,-1.6405 0.9141,-2.9535 1.9121,-3.543 0.375,-0.2219 0.9495,-0.9028 1.2735,-1.5137 1.4659,-2.7627 3.9246,-4.5879 6.1816,-4.5879 h 1.1914 L 56.881,23.8318 c -1.518,-1.0311 -3.9164,-2.031 -5.6094,-2.3379 -0.4825,-0.087 -0.9627,-0.135 -1.4395,-0.1406 z m 6.9805,4.1875 c -0.978,0.052 -1.9294,0.3993 -2.7754,1.0235 -0.817,0.6024 -2.3105,2.3349 -2.3105,2.6777 0,0.102 0.732,0.1267 1.625,0.055 1.463,-0.1174 1.7863,-0.05 3.2363,0.664 1.818,0.8951 3.2596,2.371 4.4746,4.584 0.434,0.789 0.8653,1.4375 0.9453,1.4375 0.164,0 1.8527,-4.4206 2.0977,-5.4961 0.116,-0.5089 -0.08,-0.8441 -1.0547,-1.7988 -1.577,-1.5432 -3.8609,-2.8887 -5.2539,-3.0977 -0.3293,-0.049 -0.6584,-0.066 -0.9844,-0.049 z m -17.5039,3.4453 c -0.889,0 -1.8744,0.583 -2.9024,1.7207 -0.8849,0.9789 -1.9296,2.7482 -1.9296,3.2657 0,0.1415 0.8097,1.9176 1.8007,3.9472 1.747,3.5778 1.8009,3.661 1.8809,2.6914 0.139,-1.7564 1.0867,-8.4308 1.4277,-10.0566 l 0.3282,-1.5684 z m 1.918,0.2539 c -0.039,0.017 -0.07,0.072 -0.098,0.1602 -0.326,1.0285 -1.3925,7.9171 -1.6875,10.9101 l -0.3164,3.1993 0.9473,1.8418 c 0.556,1.0803 1.7288,2.7029 2.8398,3.9257 2.092,2.3036 3.6849,4.3785 4.4219,5.7598 l 0.4824,0.9043 0.7813,-0.5937 c 2.042,-1.5572 9.5014,-10.8234 9.0644,-11.2598 -0.067,-0.067 -1.0933,-0.622 -2.2793,-1.2324 C 48.9796,39.5609 44.066,34.9648 41.865,30.2146 41.5245,29.48 41.343,29.1899 41.2264,29.24 Z m 12.1132,1.2696 c -1.5605,0.083 -3.1629,0.6141 -3.9648,1.4511 -1.317,1.3747 -1.1066,4.9082 0.3574,5.9903 0.398,0.2942 0.7703,0.5351 0.8203,0.5351 0.052,0 0.2277,-0.4455 0.3907,-0.9883 0.385,-1.2868 1.553,-2.4313 2.83,-2.7753 0.841,-0.2264 1.2643,-0.1943 2.4043,0.1816 0.761,0.251 1.4664,0.6257 1.5664,0.832 0.101,0.2062 0.4893,1.5281 0.8633,2.9375 0.374,1.4094 0.7596,2.5625 0.8496,2.5625 0.095,0 0.5488,-0.7789 1.0098,-1.7304 0.783,-1.6194 0.816,-1.7832 0.498,-2.5625 -1.101,-2.701 -3.2969,-5.3437 -5.0429,-6.0704 -0.7249,-0.3016 -1.6457,-0.4133 -2.5821,-0.3632 z m 11.2891,2.3652 c -0.1648,0.036 -0.3929,0.651 -0.8125,1.7363 -2.742,7.0914 -7.3692,14.2546 -12.9902,20.1114 l -2.3692,2.4687 0.5098,2.4981 c 0.322,1.5797 0.5098,3.4681 0.5098,5.1328 v 2.6328 l 0.9375,0.098 v 0 c 2.975,0.311 12.0575,0.018 12.4785,-0.4024 0.237,-0.237 1.3512,-4.6165 1.8222,-7.166 1.365,-7.3824 1.542,-15.9595 0.502,-24.125 -0.27,-2.1171 -0.3761,-3.0321 -0.5879,-2.9863 z m -10.043,2.8984 c -1.2471,0.034 -2.1634,0.8724 -2.6367,2.4512 -0.289,0.9644 -0.2761,1.1048 0.1289,1.4004 0.312,0.2283 0.6338,0.2582 1.0508,0.1 3.157,-1.2005 4.5906,-3.0942 2.8106,-3.7148 -0.4855,-0.1693 -0.9379,-0.2477 -1.3536,-0.2364 z m -20.6523,0.2227 c -0.187,-0.012 -1.0397,3.6418 -1.5137,6.4902 -0.183,1.1012 -0.2969,3.99 -0.2969,7 0.018,5.5447 0.4953,9.1883 1.6582,12.668 l 0.5704,1.707 3.125,1.0508 c 1.719,0.579 4.475,1.3317 6.125,1.6719 1.65,0.3403 3.3768,0.6267 3.8398,0.6367 l 0.8398,0.016 -0.1074,-3.5625 C 48.0809,60.6114 47.97,59.8301 47.379,58.1131 46.44,55.3872 45.4268,53.8135 42.6368,50.7459 c -1.974,-2.1708 -2.7108,-3.2309 -4.3418,-6.25 -1.08,-1.9997 -2.4641,-4.728 -3.0781,-6.0625 -0.613,-1.3344 -1.1932,-2.4275 -1.2832,-2.4375 z m 52.2969,2.543 -0.2364,0.9101 c -0.346,1.323 -0.7173,3.6566 -0.9023,5.6621 -0.235,2.5474 -0.7863,4.517 -1.8203,6.5 -0.911,1.7481 -2.5068,3.4897 -8.0098,8.752 -1.847,1.766 -3.5312,4.0282 -3.5312,4.748 0,0.1462 0.9056,0.2576 2.1836,0.2696 4.794,0.043 12.2568,3.0175 15.8398,6.3125 1.805,1.6597 1.591,1.9052 -1.5,1.7109 -1.321,-0.083 -3.7523,-0.3208 -5.4023,-0.5273 -3.857,-0.4835 -8.3061,-0.4911 -10.7911,-0.02 -2.399,0.455 -5.0439,1.7454 -6.6699,3.2539 -1.144,1.0608 -1.1763,1.125 -0.5683,1.125 1.218,0 2.5686,0.7611 3.7246,2.0996 1.253,1.452 2.9645,2.2781 5.4785,2.6446 v 0 c 2.622,0.3823 6.9019,-0.3236 9.2579,-1.5254 0.562,-0.2865 1.8483,-1.3028 2.8593,-2.2598 2.078,-1.9672 3.8998,-2.9252 5.9688,-3.1387 1.09,-0.1125 1.3581,-0.2224 1.2461,-0.5136 -0.903,-2.3528 -0.7847,-5.0125 0.3613,-8.1817 0.448,-1.2375 1.2237,-3.375 1.7227,-4.75 l 0.9082,-2.5 v -4.25 c 0,-5.0118 -0.3897,-7.0996 -1.8887,-10.0937 -1.515,-3.0275 -4.3029,-5.3456 -7.2149,-6 z m -28.8692,0.2539 c -0.033,-0.037 -0.7089,0.3252 -1.5019,0.8027 -0.793,0.4776 -1.5686,0.9128 -1.7246,0.9688 -0.404,0.1454 -0.2612,0.2462 1.9668,1.3789 2.199,1.1179 2.375,1.1736 2.375,0.7558 0,-0.2837 -0.9973,-3.7785 -1.1153,-3.9062 z m -41.3144,3.875 -0.9551,0.1797 c -2.935,0.5506 -6.46818,2.7987 -8.32418,5.2988 -1.845,2.4866 -2.05799,3.0813 -2.20899,6.1777 -0.091,1.8634 -0.28398,3.1318 -0.58398,3.8301 -0.443,1.0213 -0.44317,1.0541 0.0488,1.5 0.718,0.649 1.6147,2.2567 2.2207,3.9766 0.393,1.1138 0.56984,2.444 0.71484,5.375 0.167,3.395 0.27318,4.0721 0.82618,5.2793 1.897,4.1453 7.14343,7.0048 15.31643,8.3515 v 0 c 1.334,0.2198 3.624,0.3022 6.875,0.2442 4.255,-0.076 5.1863,-0.1693 7.3183,-0.7286 2.442,-0.6402 4.6071,-1.6195 4.2481,-1.9218 -0.104,-0.088 -0.9158,-0.3545 -1.8008,-0.5918 -3.51,-0.941 -6.768,-2.8132 -9.957,-5.7207 -1.063,-0.97 -2.7529,-2.3013 -3.7559,-2.959 -4.422,-2.9 -8.2531,-3.2039 -13.5391,-1.0742 -2.413,0.9725 -2.4778,0.9838 -2.67378,0.4726 -0.213,-0.5543 1.66318,-2.9062 3.57618,-4.4844 3.486,-2.875 7.0295,-4.1408 11.5625,-4.1308 1.456,0 3.0946,0.1097 3.6406,0.2363 0.546,0.1258 1.0379,0.1868 1.0879,0.1348 0.222,-0.2224 -0.5247,-1.8358 -1.3027,-2.8145 -1.228,-1.5429 -2.7864,-2.7499 -6.0684,-4.705 -3.313,-1.9737 -5.3746,-3.7227 -6.1426,-5.209 -0.588,-1.1387 -0.7046,-2.8685 -0.3476,-5.2461 z m 8.9297,20.2148 c -3.299,-0.026 -5.4836,0.5111 -8.1856,2.0098 -1.345,0.7463 -4.7117,3.5312 -4.5098,3.7304 0.039,0.038 0.8584,-0.197 1.8204,-0.5214 5.249,-1.7687 9.9393,-0.5573 15.1933,3.9238 4.038,3.4439 4.7217,3.9412 6.8067,4.9531 2.338,1.1342 4.8386,1.922 7.5566,2.3789 v 0 c 2.746,0.4581 8.291,0.4552 10.957,-0.01 4.651,-0.8111 8.0393,-2.3052 10.9473,-4.8282 1.56,-1.3542 2.7585,-1.9547 5.1055,-2.5546 2.825,-0.7227 6.7686,-0.859 11.1836,-0.3848 2.063,0.2215 4.369,0.4679 5.125,0.5469 l 1.375,0.1425 -0.875,-0.7675 c -1.265,-1.1114 -6.009,-3.4007 -8.625,-4.1621 -3.412,-0.9934 -5.9854,-1.0714 -9.0274,-0.2774 -11.622,3.034 -24.1226,2.3145 -35.4726,-2.0391 -4.74,-1.8182 -6.05,-2.1175 -9.375,-2.1445 z m 38.5644,15.3633 c -0.9815,0.039 -2.0947,0.3292 -3.4394,0.8555 -3.828,1.4986 -10.5381,2.2565 -14.7051,1.6621 -1.886,-0.269 -1.983,-0.257 -2.75,0.3183 -1.923,1.4412 -5.0189,2.4021 -9.4199,2.9219 -1.306,0.1543 -2.43,0.3363 -2.5,0.4043 -0.204,0.2028 2.7484,2.8374 4.3144,3.8496 3.799,2.4552 7.1705,3.2656 13.2695,3.1856 4.176,-0.054 4.3381,-0.037 6.0411,0.6425 0.963,0.3841 2.257,0.8475 2.875,1.0313 2.432,0.7219 7.9255,0.2427 11.6855,-1.0195 4.714,-1.5824 6.8644,-4.2738 6.0684,-7.5938 -0.288,-1.1998 -0.3091,-1.2207 -1.4551,-1.3926 -2.247,-0.3369 -4.1737,-1.3143 -5.7227,-2.9043 -1.3575,-1.3934 -2.6258,-2.0258 -4.2617,-1.9609 z"/></svg>