<svg xmlns="http://www.w3.org/2000/svg" xmlns:xlink="http://www.w3.org/1999/xlink" version="1.1" x="0px" y="0px" viewBox="0 0 100 125" enable-background="new 0 0 100 100" xml:space="preserve"><g><path fill="#bababa" d="M45.021,20.303v-0.134h13.935v0.134l0.802,0.357h2.553v-3.89h-2.553l-0.802,0.357v0.135h-4.844V6.139l-0.715-1.647   c0.639-0.445,1.059-1.184,1.059-2.022C54.456,1.104,53.351,0,51.987,0s-2.469,1.104-2.469,2.469c0,0.84,0.42,1.577,1.059,2.024   l-0.715,1.646v11.124h-4.841v-0.135l-0.802-0.357h-2.553v3.89h2.553L45.021,20.303z"/><polygon fill="#bababa" points="48.462,21.045 49.236,52.962 53.364,50.31 54.774,51.494 55.513,21.045 52.571,21.045 51.402,21.045  "/><path  fill="#bababa" d="M77.099,75.307l-7.644-5.237l1.869-6.414L59.833,57.51l-6.68-5.613l-7.482,4.811l-10.424,3.475l-7.481,10.422l1.604,5.879   l-6.949,3.475l-4.008,12.828L22.956,100h53.019l5.612-13.362L77.099,75.307z M44.778,87.586l-8.33,2.181l-3.152,8.011l2.084-9.125   l8.634-2.26l5.759-5.975L44.778,87.586z M59.555,77.064l-7.039-1.789l-1.211-5.687l-6.54-3.271l-7.588,4.018l-3.019,8.525   l-8.202,4.103l-2.881,9.214l1.865,4.227l-3.338-4.035l3.237-10.355l8.229-4.115l3.012-8.509l8.667-4.587l7.742,3.871l1.17,5.501   l7.005,1.78l1.47,8.529L59.555,77.064z M73.608,78.092l-9.119-6.25l1.767-6.055l-8.449-5.284l10.05,4.61l-1.8,6.17l8.653,5.93   l2.992,9.386L73.608,78.092z"/></g></svg>